<svg width="22" height="22" fill="none" xmlns="http://www.w3.org/2000/svg"><g fill="currentColor"><path d="M22 12.5849c0-2.3773-.302-4.7547-.302-7.033 0-.7925-.1006-1.4859-.2013-2.2783-.1006-.2972-.1006-.6934-.2013-1.0896-.3019-.1982-.2013-.5944-.5032-.7925-.4026-.1981-1.2078-.099-1.7111-.1981-.7045 0-1.3084-.099-1.9123-.1981-1.9124-.099-4.0261-.099-6.0391-.099-2.013 0-4.026-.0991-5.737-.3963H3.1782c-.1007 0-.1007.099-.2013.099-.604 0-1.1072.1982-1.6104.2972-.2013.099-.4026.1981-.7046.2972-.1006.1981-.5032.099-.6039.3962-.2013.1981.2013.4953 0 .5944v.8915c.2013.099 0 .5943.1007.7924v.9906c0 1.2877.1006 2.3773.1006 3.665.5033 2.7737.4026 6.4388.1007 9.3114.2013.5943.4026 1.0896.5032 1.684.302.4953.302 1.0896.7046 1.4858.5032.1981 1.2078.1981 1.9123.1981.4026.0991.7046.2972 1.1072.2972 2.8182-.1981 5.5358-.1981 8.4547-.1981 2.7175.1981 5.8377.1981 8.354-.1981.2013-.0991.1006-.4953.2013-.7925-.1007-.3962.2013-.3962.2013-.7924C22 17.4387 22 15.0613 22 12.5849zM8.9154 6.4434c.8052-.1981 1.5098-.2972 2.4156-.2972.7046.099 1.3085.2972 1.9124.4953.1006.1981-.2013.4953.2013.6934.1006 0 .1006 0 .2013.099.4026 0 .8052.1982 1.1071.3963.5033.099.5033.4953 1.1072.3962-.1007.1981-.1007.4953-.1007.7925.302 1.1886.5033 2.7736.302 4.2594-.2013.1981-.2013.3962-.302.6934-.3019.2972-.5032.7925-.8052 1.0896-.1006.1981-.3019.3962-.5032.4953-.1007.1981-.2013.4953-.5033.4953-.3019.1981-.6039 0-.8052-.0991-.4026.1981-.9058.2972-1.2078.5944L9.5193 16.25c-.2013-.0991-.5033-.2972-.8052-.2972-.2013-.1981-.5033-.3962-.8052-.4953-.1007-.099-.302-.099-.5033-.1981-.2013 0-.2013-.1981-.5032-.1981-.1007-.3962-.4026-.5943-.5033-1.0896-.2013-.2972-.302-.7925-.5032-1.1887 0-1.3868.1006-2.6745.4026-3.7641.302-.5944.8052-1.0897 1.1071-1.684.2013 0 .4026-.099.4026-.2972.302.099.4026-.099.7046-.099.2013 0 .2013-.2972.4026-.4953zm-1.711-2.6745c-.1007-.2972-.1007-.6934-.1007-1.0896 0-.2972.302-.2972.302-.4953 0-.099-.1007-.099-.2014-.099.1007-.0992.7046-.0992.8052 0 .1007.4952-.4026.4952-.5032.6933 0 .1981.302 0 .5032.099 0 .8916-.1006 1.486 0 2.1793h-.5032c0 .1981.2013.1981.5032.1981-.1006.2972.1007.3962.1007.5944-.2013.198-.7046 0-1.1072.099 0-.5943.302-1.3868.2013-2.1792zm-.7046-1.585c.1006 0 .1006 0 .2013.0991.2013.2972 0 .6934-.1007.8915-.2013-.198 0-.6934-.1006-.9905zm.2013 1.783c-.1007-.099-.2013-.198-.2013-.4952.2013.099.2013.2972.2013.4953zm0 1.3869c-.1007.099-.1007 0-.1007-.1981.1007-.0991.1007.099.1007.198zm-.2013.198c.2013 0 .1006.1982.2013.1982 0 .1981-.302.1981-.4026.099.1006-.099.2013-.198.2013-.2971zm-2.315-1.1886c0-.099 0-.1981-.1007-.1981-.1006-.6934.1007-1.3868 0-1.9811.302-.1982.8053 0 1.1072-.099v1.0895c-.1006.099-.2013.099-.4026.099-.1007.2973.302.0991.4026.2973 0 .8915-.1006 1.783.2013 2.3773-.6039-.099-.9059.099-1.4091.099.1007-.5943 0-1.3867.5032-1.5848 0-.099-.3019 0-.3019-.099zm-.5033 0c-.2013 0-.2013-.4953-.1006-.5943.302 0 .2013.4952.1006.5943zm-.2013.9906c.1007-.2972 0-.2972.1007-.6934.2013 0 .2013.7924-.1007.6934zm.2013-2.0802c-.302.099-.302-.2972-.2013-.3962.302 0 .4026.2971.2013.3962zm0-1.0896c0 .198-.1006.198-.1006.2971-.2013 0-.1007-.198-.2013-.198.1006-.0991.2013-.0991.302-.0991zm-.2013 3.665c.1007 0 .1007.2972-.1006.1982.1006 0 .1006-.099.1006-.1981zm-.7045-3.665c0 .2971-.4026.2971-.4026 0h.4026zm-1.0065.099c0 .1981-.302.1981-.4026.3963-.2013-.1982.1006-.4953.4026-.3963zm-.4026.6934c.2013-.1981.5032-.3962.7045-.5943 0-.099.1007-.099.1007-.1981h.2013c.1006.3962-.302.2971-.302.4952 0 .0991-.1006.0991-.1006.1982 0 .2971.1006.5943.1006.9905-.302 0-.302.2972-.6039.1981 0-.3962-.2013-.5943-.1006-1.0896zm.1006 3.2689v-1.585c.2013-.198.4026-.3962.604-.4952.3019.4953.2012 1.3868.5032 1.882-.4026.0991-.8052.0991-1.1072.1982zm18.3185 10.9953c-.1007.9905-.2013 1.9811-.4026 2.7736-2.9189.099-6.0391-.0001-8.9579.1981-.2013 0-.302 0-.2014-.1981-.3019 0-.3019.1981-.5032.1981.2013-.2972.4026-.8916.2013-1.2878-.8052 0-.8052.7925-1.1072 1.2878-.7045-.0991-1.1071.099-1.8117.099.2013-.6934.7046-.9905.9059-1.6839-.4026-.4953-1.0065.099-1.2078.4952-.2013.4953-.604.7925-.8052 1.2878H4.8894c.2013-.4953.5032-.8915.8052-1.3868.2013-.4953.6039-.6934.7045-1.3868-.2013-.2972-.4026 0-.7045 0-.1007.1981-.302.2972-.4026.4953-.2013.3962-.5033.6934-.7046 1.0896-.2013.1981-.302 0-.5033.1981-.4026.2972-.6039.6934-1.0065.9906-.2013-.0991 0-.3962.2013-.3962 0-.1982-.1006-.4953.1007-.5944.1006-.3962.2013-.5943.4026-.8915.1006-.6934.5032-1.1887.7045-1.8821-.6039.0991-.7045.5944-1.0065.9906-.2013.3962-.5032.7924-.7045 1.2877-.2013-.099 0-.5943-.1007-.7924.1007-.5944.302-1.0897.4026-1.684.1007-.1981.2013-.4953.2013-.7924.2013-.1982 0-.5944-.1006-.7925-.2013 0-.4026.0991-.5033.2972-.2013 0-.2013.4953-.302.2971 0-2.5754-.5032-4.7547-.5032-7.3301 0-.2972-.2013-.3963-.2013-.6934 1.6104 0 3.1202.099 4.8313.198-.1007.0991-.2013.2973-.302.3963-.1006.099-.2013.1981-.4026.2972-.6039 1.6839-1.0065 3.9622-.6039 6.1415.2013.5943.604.9905 1.0065 1.3868.9059.4953 1.6104 1.0896 2.5163 1.6839 1.7111.3963 3.8247.3963 5.5358 0 .2013-.099.5032-.1981.7045-.3962 1.4092-1.1887 2.8183-2.4764 3.0196-4.8538v-1.3868c-.2013-1.5849-.7046-2.8726-1.7111-3.566.3019-.1981 1.1072 0 1.7111.099h.7045c.4026 0 .9059-.099 1.4091 0 .1007.1982.1007.4953.2013.7925-.1006 1.684-.2013 3.2689-.2013 5.0519.1007.4953.1007.9906.2013 1.3868-.2013.7924-.3019 1.684-.5032 2.5755zm.4026-11.0944c-.6039-.099-1.2078-.2971-1.9124-.3962.1007-.2972.8052 0 1.0065-.1981.4026-.1981.302-.8915.302-1.4859 0-.2971.1006-.5943.1006-1.0896-.4026-.9906-1.8117-.3962-2.9189-.4953-.2013.6934-.5032 1.783-.3019 2.6746.2013.4952 1.0065.2971 1.5098.4952-.1007.2972-.7046.0991-1.0065.0991-.302-.099-.7046-.099-1.0066-.1981-2.3149.099-4.3279 0-6.5423.1981.1007-1.1887.1007-2.4764-.1006-3.566h3.1202c-.302.3962-.9059.4952-1.3085.7924-.4026.1981-.9059.4953-1.1072.8915.2013.099.5033-.198.8053-.3962.4026-.099.5032-.3962.8052-.4953.4026-.3962 1.1071-.5943 1.711-.8915.4026 0 .7046 0 1.0065.099 1.3085 0 2.5163.0991 3.8248.0991.6039.099 1.5097.099 2.013.2972l.3019.8915c-.1006.9906-.3019 1.783-.3019 2.6745zm-5.9384-3.665c.1006-.0991 0-.0991 0 0zm0 0c-.5033.198-1.0065.2971-1.4091.6933.5032-.198 1.1071-.2971 1.4091-.6934zm1.1071.5943c.1007-.099 0-.099 0 0zm-1.8117.8915c.7046-.1981 1.2078-.5944 1.7111-.8915-.4026 0-.6039.2971-1.0065.3962-.1007.1981-.5033.1981-.7046.4953zm-.7045-.7925c-.1007 0 .1006.099 0 0zm-.6039.5944c.1006-.099 0-.099 0 0zm-.1007.099c.1007 0 .1007-.099 0 0 0-.099 0-.099 0 0zm-.1006 0c.1006 0 .1006 0 0 0 0-.099 0 0 0 0zm-.8052.5944c.3019-.099.6039-.2972.8052-.5944-.302.1981-.6039.3962-.8052.5944zm2.3149.9905c.5033 0 .7046-.3962 1.2078-.4952.302-.2972.8052-.3963 1.0065-.7925-.6039 0-.8052.3962-1.2078.4953-.3019.3962-.8052.4953-1.0065.7924zm-2.3149-.9905c-.302 0 0 .2971 0 0zm-.6039.3962c.1006 0 .2013 0 0 0 .1006-.099 0 0 0 0zm2.9188.5943c-.2013.099 0 .099 0 0zm-1.2078 1.783c-.2013-.198-.7045-.198-1.0065-.3962-.7045 0-1.2078.099-1.711.1981-.302.1982-.604.2972-.906.4953-.3019.1981-.4025.3962-.8051.4953-.2013.1981-.4026.4953-.7046.5943 0 .1982-.2013.2972-.302.3963-.1006.099-.1006.2971-.2012.3962 0 .099 0 .2972-.1007.2972.1007 1.4858.302 2.8726.7046 4.1603.302.5944 1.0065.7925 1.409 1.2878.604.2971 1.3085.3962 2.1138.4953.3019-.0991.6039-.0991.9058-.0991 1.2078-.1981 2.1137-.6934 2.8182-1.3868.1007-.2972.302-.4953.5033-.6934-.302-.6934.3019-1.0896.5032-1.5849 0-1.2877-.2013-2.4764-.6039-3.368-.3019-.5943-.9058-.7924-1.4091-1.0895-.1006 0-.2013 0-.2013-.099-.2013-.0991-.7045-.1982-1.0065-.0991zm-3.4221 4.3585c-.1007-.099-.1007-.1981-.2013-.3962.302-.099.2013.1981.2013.3962zm.1006.2972c0-.099.1007 0 0 0 0 .1981 0 .0991 0 0zm.4026-2.0802c0-.099.1007 0 0 0 .1007.099 0 .099 0 0zm1.7111-2.0802c-.2013.2972 0 .5944.1007.7925-.302 0-.6039-.7925-.1007-.7925zm.4026 3.8632c-.1006 0 0 0 0 0 .1007 0 0 .0991 0 0zm.7046 2.8727c0-.0991.1006 0 .2013 0 0 .099-.2013.099-.2013 0zm2.2143-2.4764c-.2013-.0991-.1007.1981-.4026.1981.1006-.1981.1006-.2972.2013-.4953.2013 0 .3019.099.2013.2972zM13.344 8.2264c.2013.099.4026.1981.6039.3962.1007.1982.2013.3963.4026.4953.1007.7925.2013 1.4859.2013 2.3774-.3019.099-.4026.2972-.7045.3962-.8052 0-1.4091-.1981-1.9124-.4953-.2013-.2971-.4026-.4953-.5032-.7924V9.5142c.2013-.1982.3019-.3963.5032-.5944.2013-.099.5033-.1981.5033-.5943 0-.099-.1007-.099-.1007-.1981.2013 0 .2013.198.4026.198s.302-.198.6039-.099z"/></g></svg>
